Fly_normalized_Motion_pl06
version=1
nRows=12
nColumns=43
inDegrees=yes
endheader
time		pelvis_tilt		pelvis_list		pelvis_rotation		pelvis_tx		pelvis_ty		pelvis_tz		hip_flexion_r		hip_adduction_r		hip_rotation_r		knee_angle_r		ankle_angle_r		subtalar_angle_r		mtp_angle_r		hip_flexion_l		hip_adduction_l		hip_rotation_l		knee_angle_l		ankle_angle_l		subtalar_angle_l		mtp_angle_l		lumbar_extension		lumbar_bending		lumbar_rotation		neck_flexion		neck_lateral_bending		neck_rotation		arm_flex_r		arm_add_r		arm_rot_r		elbow_flex_r		pro_sup_r		wrist_flex_r		wrist_dev_r		hand_finger_flex_r		arm_flex_l		arm_add_l		arm_rot_l		elbow_flex_l		pro_sup_l		wrist_flex_l		wrist_dev_l		hand_finger_flex_l		
0.501667		-0.520169		-7.558741		86.305667		0.050111		1.746999		1.270732		45.731452		2.158635		1.416589		-100.029637		-18.554384		-5.182348		4.737999		66.891766		-3.556076		1.983712		-77.454672		-16.191921		-10.289854		16.956291		-41.832844		-3.261044		6.626471		22.880091		2.712757		-6.368934		77.411571		-29.664722		14.248993		58.415287		123.198177		1.653620		-10.749457		6.893828		72.949896		-22.103090		23.067911		57.291593		121.697751		-5.081607		1.392410		3.944597		
0.505884		-0.299033		-7.371341		86.209961		0.049636		1.742842		1.262627		46.119790		2.282581		1.158507		-98.693185		-18.813572		-4.567696		4.846396		66.388891		-3.763806		2.214931		-75.918565		-16.554922		-10.267386		16.996720		-42.166485		-3.061442		6.884946		23.107527		2.601527		-6.278832		76.214516		-30.218662		13.962648		58.689903		123.155132		1.507387		-10.695301		6.693629		71.324319		-22.776837		22.793948		57.977850		122.047196		-5.276587		1.588037		4.191825		
0.510101		-0.023917		-7.201742		86.143236		0.049123		1.738456		1.254443		46.481048		2.406627		0.835717		-97.329680		-19.021205		-3.927745		5.082642		65.889090		-3.978386		2.516562		-74.382851		-16.855886		-10.191293		17.102857		-42.478762		-2.792888		7.160785		23.342063		2.413322		-6.181868		74.944882		-30.824002		13.688617		59.048116		122.878613		1.402065		-10.494750		6.484465		69.577133		-23.281250		22.129358		58.627552		122.559090		-5.330608		1.896819		4.719800		
0.514318		0.175494		-7.030464		86.063763		0.048578		1.733646		1.246107		46.827444		2.447481		0.533437		-96.000954		-19.191653		-3.513052		5.362827		65.383164		-4.168409		2.724776		-72.901599		-17.089627		-10.017918		17.234378		-42.709938		-2.578913		7.381639		23.170491		2.241726		-6.093975		73.636333		-31.453428		13.517497		59.350729		122.508644		1.445312		-10.334000		6.331911		67.844917		-23.771577		21.506391		59.057258		123.081455		-5.228340		2.001643		5.377891		
0.518535		0.367849		-6.886747		85.980583		0.048039		1.728762		1.237703		47.150162		2.486858		0.249690		-94.613465		-19.397577		-3.063657		5.619357		64.860422		-4.348854		2.955958		-71.381297		-17.266470		-9.774335		17.345376		-42.934689		-2.393765		7.597480		23.227400		2.111471		-6.013887		72.218465		-31.958766		13.012754		59.604563		122.086610		1.467337		-10.199807		6.212609		66.037122		-24.176563		20.700938		59.460732		123.470722		-5.219371		1.938377		5.977953		
0.522753		0.497536		-6.731217		85.885266		0.047454		1.723673		1.229199		47.436010		2.471269		0.025675		-93.217906		-19.589101		-2.651877		5.829208		64.301306		-4.492579		3.126626		-69.873011		-17.412186		-9.464679		17.420716		-43.153990		-2.266351		7.747852		23.230656		2.042496		-5.917720		70.745224		-32.341104		12.306213		59.794899		121.752410		1.567307		-10.168034		6.182898		64.185144		-24.670042		19.977997		59.863523		123.751115		-5.320748		1.658681		6.430199		
0.526970		0.561213		-6.559901		85.762160		0.046966		1.718311		1.220605		47.685805		2.428985		-0.135137		-91.831733		-19.747867		-2.296125		5.973788		63.714313		-4.623777		3.224125		-68.396577		-17.558811		-9.135140		17.449661		-43.358181		-2.228101		7.829811		23.119123		2.033630		-5.816742		69.232117		-32.679074		11.570984		59.937228		121.539907		1.726292		-10.268829		6.232887		62.319436		-25.333832		19.488999		60.282057		123.897683		-5.574799		1.213367		6.653474		
0.531187		0.591125		-6.383789		85.615711		0.046541		1.712784		1.211948		47.889456		2.393568		-0.231237		-90.410580		-19.887323		-1.930744		6.129004		63.101961		-4.747285		3.301213		-66.930961		-17.700342		-8.743446		17.467523		-43.571027		-2.241080		7.869424		23.067498		2.069201		-5.686685		67.659147		-32.945897		10.688625		60.096260		121.386557		1.957334		-10.468924		6.331671		60.349596		-26.121607		19.040552		60.785292		123.993857		-6.041936		0.644369		6.759103		
0.535404		0.607405		-6.207638		85.459796		0.046292		1.706951		1.203298		48.084502		2.399255		-0.296206		-89.005412		-20.006369		-1.650712		6.192050		62.492169		-4.882977		3.362549		-65.492305		-17.893857		-8.387885		17.445199		-43.752215		-2.297915		7.902256		22.871604		2.110160		-5.586068		66.055802		-33.342100		10.033608		60.269358		121.197142		2.085288		-10.733635		6.409130		58.393598		-26.993281		18.775393		61.277873		123.922127		-6.557509		0.213047		6.686795		
0.539621		0.606518		-6.039285		85.255786		0.045886		1.701062		1.194613		48.218133		2.395599		-0.294828		-87.493449		-20.121104		-1.356797		6.251494		61.880078		-5.008140		3.434571		-64.095510		-18.077943		-7.904021		17.425611		-43.960183		-2.365585		7.931851		22.890670		2.171431		-5.425153		64.413033		-33.644235		9.181598		60.473833		120.866130		2.190718		-11.045233		6.480520		56.263430		-27.869611		18.373824		61.850463		123.732768		-7.343338		-0.163095		6.510369		
0.543838		0.618491		-5.869698		85.068984		0.045547		1.694934		1.185909		48.334120		2.404690		-0.319303		-85.990330		-20.257389		-1.142161		6.274127		61.259548		-5.148830		3.499473		-62.703685		-18.320141		-7.401867		17.399385		-44.142998		-2.420077		7.967433		22.777081		2.194958		-5.291495		62.704234		-34.055132		8.487845		60.725380		120.419720		2.212469		-11.308150		6.485153		54.098004		-28.663318		17.890941		62.350627		123.474957		-8.071795		-0.341509		6.376628		
0.548056		0.630929		-5.697194		84.894771		0.045158		1.688640		1.177155		48.421338		2.375955		-0.377392		-84.475179		-20.423565		-0.981075		6.278836		60.626938		-5.298411		3.536261		-61.325569		-18.587326		-6.847945		17.379806		-44.314609		-2.455991		7.995229		22.637184		2.188222		-5.156425		60.944486		-34.490376		7.827417		60.984008		119.856219		2.202489		-11.501181		6.429370		51.867812		-29.356912		17.262326		62.786182		123.183634		-8.781866		-0.430224		6.314231		
